HIERARCHY
ROOT Hips
{
	OFFSET 0.00000 0.00000 0.00000
	CHANNELS 6 Xposition Yposition Zposition Zrotation Yrotation Xrotation 
	JOINT LHipJoint
	{
		OFFSET 0 0 0
		CHANNELS 3 Zrotation Yrotation Xrotation
		JOINT LeftHip
		{
			OFFSET 1.36306 -1.79463 0.83929
			CHANNELS 3 Zrotation Yrotation Xrotation
			JOINT LeftKnee
			{
				OFFSET 2.44811 -6.72613 0.00000
				CHANNELS 3 Zrotation Yrotation Xrotation
				JOINT LeftAnkle
				{
					OFFSET 2.56220 -7.03959 0.00000
					CHANNELS 3 Zrotation Yrotation Xrotation
					JOINT LeftToe
					{
						OFFSET 0.15764 -0.43311 2.32255
						CHANNELS 3 Zrotation Yrotation Xrotation
						End Site
						{
							OFFSET 0.00000 -0.00000 1.18966
						}
					}
				}
			}
		}
	}
	JOINT RHipJoint
	{
		OFFSET 0 0 0
		CHANNELS 3 Zrotation Yrotation Xrotation
		JOINT RightHip
		{
			OFFSET -1.30552 -1.79463 0.83929
			CHANNELS 3 Zrotation Yrotation Xrotation
			JOINT RightKnee
			{
				OFFSET -2.54253 -6.98555 0.00000
				CHANNELS 3 Zrotation Yrotation Xrotation
				JOINT RightAnkle
				{
					OFFSET -2.56826 -7.05623 0.00000
					CHANNELS 3 Zrotation Yrotation Xrotation
					JOINT RightToe
					{
						OFFSET -0.16473 -0.45259 2.36315
						CHANNELS 3 Zrotation Yrotation Xrotation
						End Site
						{
							OFFSET -0.00000 -0.00000 1.21082
						}
					}
				}
			}
		}
	}
	JOINT lowerback
	{
		OFFSET 0 0 0
		CHANNELS 3 Zrotation Yrotation Xrotation
		JOINT Chest
		{
			OFFSET 0.02827 2.03559 -0.19338
			CHANNELS 3 Zrotation Yrotation Xrotation
			JOINT Chest2
			{
				OFFSET 0.05672 2.04885 -0.04275
				CHANNELS 3 Zrotation Yrotation Xrotation
				JOINT lowerneck
				{
					OFFSET 0 0 0
					CHANNELS 3 Zrotation Yrotation Xrotation
					JOINT Neck
					{
						OFFSET -0.05417 1.74624 0.17202
						CHANNELS 3 Zrotation Yrotation Xrotation
						JOINT Head
						{
							OFFSET 0.10407 1.76136 -0.12397
							CHANNELS 3 Zrotation Yrotation Xrotation
							End Site
							{
								OFFSET 0.03720 1.77044 -0.06241
							}
						}
					}
				}
				JOINT LeftCollar
				{
					OFFSET 0 0 0
					CHANNELS 3 Zrotation Yrotation Xrotation
					JOINT LeftShoulder
					{
						OFFSET 3.36241 1.20089 -0.31121
CHANNELS 3 Zrotation Xrotation Yrotation
						JOINT LeftElbow
						{
OFFSET 0 -4.983000 -0.000000
CHANNELS 3 Zrotation Xrotation Yrotation
							JOINT LeftWrist
							{
OFFSET 0 -3.483560 -0.000000
CHANNELS 3 Zrotation Xrotation Yrotation
								JOINT lhand
								{
									OFFSET 0 0 0
CHANNELS 3 Zrotation Xrotation Yrotation
									JOINT LFingers
									{
OFFSET 0 -0.715260 -0.000000
CHANNELS 3 Zrotation Xrotation Yrotation
										End Site
										{
OFFSET 0 -0.576660 -0.000000
										}
									}
								}
								JOINT LThumb
								{
OFFSET 0 0.000000 0.000000
CHANNELS 3 Zrotation Xrotation Yrotation
									End Site
									{
OFFSET 0 -0.585470 0.585470
									}
								}
							}
						}
					}
				}
				JOINT RightCollar
				{
					OFFSET 0 0 0
					CHANNELS 3 Zrotation Yrotation Xrotation
					JOINT RightShoulder
					{
						OFFSET -3.13660 1.37405 -0.40465
CHANNELS 3 Zrotation Xrotation Yrotation
						JOINT RightElbow
						{
OFFSET 0 -5.241900 -0.000000
CHANNELS 3 Zrotation Xrotation Yrotation
							JOINT RightWrist
							{
OFFSET 0 -3.444170 -0.000000
CHANNELS 3 Zrotation Xrotation Yrotation
								JOINT rhand
								{
									OFFSET 0 0 0
CHANNELS 3 Zrotation Xrotation Yrotation
									JOINT RFingers
									{
OFFSET 0 -0.622530 -0.000000
CHANNELS 3 Zrotation Xrotation Yrotation
										End Site
										{
OFFSET 0 -0.501900 -0.000000
										}
									}
								}
								JOINT RThumb
								{
OFFSET 0 0.000000 0.000000
CHANNELS 3 Zrotation Xrotation Yrotation
									End Site
									{
OFFSET 0 -0.509560 0.509560
									}
								}
							}
						}
					}
				}
			}
		}
	}
}
MOTION
Frames: 7
Frame Time: 0.008333333333333333
11.332900 17.732800 18.618300 -167.849000 -72.118300 168.362000 0.000000 0.000000 0.000000 -13.802600 4.902700 -7.373600 2.180500 9.232300 26.524700 1.365100 -3.605500 -21.199500 0.006700 0.529800 1.455900 0.000000 0.000000 0.000000 20.111400 12.705500 -15.408800 -4.041900 -12.215900 36.500200 -0.809200 -2.946500 -18.305800 -0.063000 1.619600 -4.455500 -1.918100 3.723200 10.322600 1.729600 4.675000 3.026500 2.271900 2.273800 -2.919100 -6.001100 -4.817900 -5.189900 9.978200 -6.096000 -5.225300 4.229100 -3.061400 -0.219700 -0.000000 0.000000 0.000000 5.271300 -2.360600 -16.667700 13.351400 -21.800000 2.582300 19.181800 -2.287700 5.589000 0.000000 0.000000 0.000000 -7.125000 0.000000 0.000000 -5.586300 24.067900 -2.835400 -0.000000 0.000000 0.000000 -2.976100 -1.415600 -10.660700 -20.137400 -30.807500 -5.601500 -28.874300 -177.661100 -19.595700 0.000000 0.000000 0.000000 7.125000 0.000000 -0.000000 -0.341100 7.856400 -0.291300
11.207938 17.779101 18.520671 -171.129092 -69.939614 172.036639 0.000000 0.000000 0.000000 -14.571985 5.682950 -5.631218 1.764932 8.358080 23.807217 1.381351 -1.709733 -21.730581 0.005059 0.456199 1.253611 0.000000 0.000000 0.000000 18.635297 13.736699 -18.149947 -4.412872 -12.690430 38.220390 -0.680886 -6.217130 -19.071422 -0.027271 -1.060656 2.915736 -3.775282 3.446230 9.495724 1.900363 4.166754 2.906063 3.597622 2.032811 -2.702225 -6.810197 -4.981123 -5.192138 10.583560 -6.231454 -6.598718 4.630526 -3.155378 -0.605511 0.000000 0.000000 0.000000 5.160893 -3.198722 -11.744039 12.432554 -20.450212 2.251198 19.273311 -0.241434 4.574852 0.000000 0.000000 0.000000 -7.125000 0.000000 0.000000 -5.542272 25.132985 -2.675532 0.000000 0.000000 0.000000 -4.118509 -1.189417 -7.410936 -21.055999 -31.893519 -6.079579 -29.863686 -176.778467 -17.608854 0.000000 0.000000 0.000000 7.125000 0.000000 0.000000 -1.225966 9.881440 -0.997502
11.004652 17.799339 18.373211 -170.603970 -68.647458 172.375154 0.000000 0.000000 0.000000 -13.987481 6.501655 -4.575393 1.511970 7.765327 22.003536 1.421793 -0.815421 -22.303489 0.000185 0.014836 0.040817 0.000000 0.000000 0.000000 17.359144 13.498804 -20.796106 -3.994766 -12.153180 36.276374 -0.577161 -7.392763 -18.913987 -0.061832 -1.604422 4.413712 -3.557592 3.084366 8.503103 1.845695 3.756023 2.625331 3.510468 1.836313 -2.390239 -6.298997 -4.974099 -6.758429 11.420339 -6.209714 -6.651501 4.648321 -3.149633 -0.315434 0.000000 0.000000 0.000000 6.213933 -4.207451 -10.898972 11.998465 -19.802383 2.101811 18.279652 -1.393063 5.706722 0.000000 0.000000 0.000000 -7.125000 0.000000 0.000000 -6.253118 23.976700 -3.191001 0.000000 0.000000 0.000000 -5.161130 -0.961232 -5.299033 -22.230570 -33.235927 -6.712065 -29.729153 -180.496173 -19.478180 0.000000 0.000000 0.000000 7.125000 0.000000 0.000000 -0.901740 7.820639 -0.771052
10.769196 17.799465 18.158515 -170.980841 -68.442715 173.124878 0.000000 0.000000 0.000000 -13.526384 7.604205 -2.615167 1.163682 6.847363 19.264228 1.341898 -0.657293 -21.704753 0.013550 -0.699174 -1.921695 0.000000 0.000000 0.000000 14.866749 14.118817 -22.516067 -3.180819 -10.981429 32.218132 -0.513109 -8.355919 -19.074536 -0.065541 -1.650309 4.540217 -4.057172 2.443128 8.053460 2.133927 2.884411 2.741753 4.211228 1.391275 -1.980472 -6.337023 -4.919557 -7.608013 12.219537 -6.042867 -8.283614 4.593360 -3.127220 -0.599543 0.000000 0.000000 0.000000 7.898646 -6.027751 -14.475333 12.900948 -21.141716 2.417596 14.458914 0.065137 6.778047 0.000000 0.000000 0.000000 -7.125000 0.000000 0.000000 -9.027572 23.003195 -4.840348 0.000000 0.000000 0.000000 -8.046050 -1.096781 -4.424958 -24.311691 -35.491868 -7.886889 -31.759978 -184.288912 -18.985717 0.000000 0.000000 0.000000 7.125000 0.000000 0.000000 -2.263126 7.961855 -1.931617
10.476699 17.786701 17.892948 -172.266407 -68.853012 174.232164 0.000000 0.000000 0.000000 -13.333597 8.638173 0.433302 0.801929 5.714897 15.959479 1.207268 -0.425769 -20.642828 0.003122 -0.355572 -0.976889 0.000000 0.000000 0.000000 11.675388 15.108006 -23.063953 -2.331516 -9.524228 27.449900 -0.521331 -9.991626 -20.720194 -0.159136 -2.569428 7.082257 -4.443894 1.870980 8.188530 2.296500 2.084996 2.872428 4.683727 0.982855 -1.854427 -6.022126 -5.036149 -9.013541 11.873187 -6.222242 -8.282249 4.397070 -3.199747 -0.386615 0.000000 0.000000 0.000000 10.813815 -9.289814 -19.518462 15.889350 -25.368916 3.599278 15.517559 -0.958666 8.084839 0.000000 0.000000 0.000000 -7.125000 0.000000 0.000000 -8.208192 21.625325 -4.651732 0.000000 0.000000 0.000000 -12.344934 -1.655166 -1.696061 -27.936061 -39.055396 -10.084088 -30.546236 -188.610985 -19.372931 0.000000 0.000000 0.000000 7.125000 0.000000 0.000000 -1.436810 7.775759 -1.229787
10.136165 17.732121 17.548042 -172.848681 -69.380918 174.472229 0.000000 0.000000 0.000000 -12.625751 9.259533 4.178073 0.496551 4.516881 12.535759 1.036513 0.679670 -19.498441 0.040982 -1.305182 -3.588883 0.000000 0.000000 0.000000 8.993775 16.728846 -22.894457 -1.687092 -8.180993 23.265397 -0.531686 -12.512263 -23.404134 -0.351989 -3.811495 10.546950 -4.493291 1.444775 8.444885 2.504597 1.498179 3.029058 4.988964 0.678709 -1.772717 -5.786818 -5.042095 -9.338150 11.299632 -6.274676 -9.009322 4.621264 -3.248393 -0.678398 0.000000 0.000000 0.000000 15.250397 -14.716214 -22.137061 20.614542 -31.372760 5.849276 17.257029 -0.895375 9.110952 0.000000 0.000000 0.000000 -7.125000 0.000000 0.000000 -6.934574 20.479227 -4.099460 0.000000 0.000000 0.000000 -17.278427 -3.813915 -0.430333 -33.378823 -43.616259 -13.683724 -28.854468 168.942907 -17.697282 0.000000 0.000000 0.000000 7.125000 0.000000 0.000000 -0.558572 9.962493 -0.453944
9.731479 17.610695 17.120090 -174.961416 -69.716055 175.874659 0.000000 0.000000 0.000000 -12.184893 9.660185 10.152920 0.147616 2.463398 6.788851 0.772976 2.956041 -17.932712 0.109842 -2.131345 -5.869043 0.000000 0.000000 0.000000 6.864265 17.741932 -22.312502 -1.426350 -7.551985 21.361271 -0.622807 -13.471980 -25.199084 -0.367532 -3.894183 10.779117 -4.670481 1.158035 9.130412 2.414484 1.070987 2.920118 5.034312 0.479617 -2.214326 -6.064655 -5.033324 -9.567337 11.590664 -6.205398 -9.015324 4.387358 -3.209603 -0.543080 0.000000 0.000000 0.000000 21.561395 -21.407668 -22.446887 26.789212 -37.974835 9.370118 19.727567 -0.905984 10.315069 0.000000 0.000000 0.000000 -7.125000 0.000000 0.000000 -5.173764 19.060913 -3.213581 0.000000 0.000000 0.000000 -22.705586 -7.285325 -0.094497 -40.904669 -48.595435 -19.115533 -31.585797 162.377129 -19.250454 0.000000 0.000000 0.000000 7.125000 0.000000 0.000000 -2.112111 7.695244 -1.818089
